<svg width="62" height="155" viewBox="0 0 62 155" fill="none" xmlns="http://www.w3.org/2000/svg">
<ellipse cx="33" cy="152.5" rx="15" ry="2.5" fill="#302829"/>
<path d="M45.9118 17.606C45.9118 17.606 45.9118 13.7781 40.5504 8.42256C35.189 3.06701 31.7708 0 31.7708 0C31.7708 0 29.0901 8.7796 34.0652 14.1644C39.0403 19.5492 45.9352 24.4951 45.9352 24.4951L45.9118 17.606Z" fill="#E49B00"/>
<path d="M38.1446 41.5098C38.1446 41.5098 38.1446 37.6819 32.7832 32.3264C27.4218 26.9708 24.0036 23.9038 24.0036 23.9038C24.0036 23.9038 21.3229 32.6834 26.3038 38.0682C31.2848 43.4531 38.1446 48.3989 38.1446 48.3989V41.5098Z" fill="#E49B00"/>
<path d="M45.5722 24.1263C45.5722 24.1263 45.9761 20.3218 51.8701 15.5574C57.7642 10.793 61.516 8.1123 61.516 8.1123C61.516 8.1123 63.2719 17.1494 57.7349 21.9548C52.1979 26.7602 44.8582 30.9802 44.8582 30.9802L45.5722 24.1263Z" fill="#E49B00"/>
<path d="M36.1781 52.3557C36.1781 52.3557 36.98 48.6156 43.3423 44.4951C49.7046 40.3745 53.7139 38.1094 53.7139 38.1094C53.7139 38.1094 54.4865 47.2753 48.4988 51.4778C42.5111 55.6803 34.7324 59.0868 34.7324 59.0868L36.1781 52.3557Z" fill="#E49B00"/>
<path d="M37.9458 83.137C37.9458 83.137 37.9458 79.3091 43.3013 73.9536C48.6569 68.598 52.0809 65.531 52.0809 65.531C52.0809 65.531 54.7616 74.3106 49.7865 79.6896C44.8114 85.0685 37.9224 90.0261 37.9224 90.0261L37.9458 83.137Z" fill="#E49B00"/>
<path d="M37.852 90.6758C37.852 90.6758 38.3963 86.883 33.8543 80.8193C29.3124 74.7555 26.339 71.2319 26.339 71.2319C26.339 71.2319 22.435 79.5667 26.5965 85.5778C30.758 91.5889 36.8745 97.4946 36.8745 97.4946L37.852 90.6758Z" fill="#E49B00"/>
<path d="M32.5725 112.917C32.5725 112.917 32.5725 109.089 37.928 103.728C43.2836 98.3666 46.7076 95.3113 46.7076 95.3113C46.7076 95.3113 49.3883 104.091 44.4132 109.47C39.4381 114.849 32.5491 119.806 32.5491 119.806L32.5725 112.917Z" fill="#E49B00"/>
<path d="M36.1487 133.105C36.1487 133.105 35.1771 129.4 39.005 122.856C42.8329 116.312 45.3907 112.484 45.3907 112.484C45.3907 112.484 50.2078 120.322 46.7545 126.766C43.3012 133.21 37.893 139.766 37.893 139.766L36.1487 133.105Z" fill="#E49B00"/>
<path d="M46.3916 16.6284C46.1212 20.6127 45.6327 24.5793 44.9283 28.5101C42.8095 39.4554 37.5125 46.5142 35.3937 56.4C33.2749 66.2858 39.3562 79.0221 37.7349 91.7174C36.1136 104.413 31.1619 111.477 32.5783 119.953C33.9948 128.428 41.4048 151.372 41.4048 151.372" stroke="white" stroke-opacity="0.6" stroke-linecap="round" stroke-linejoin="round"/>
<path d="M45.5195 26.6725L51.2965 22.2417" stroke="white" stroke-opacity="0.6" stroke-linecap="round" stroke-linejoin="round"/>
<path d="M45.7889 21.5686L43.3716 17.2725" stroke="white" stroke-opacity="0.6" stroke-linecap="round" stroke-linejoin="round"/>
<path d="M35.7158 55.9495C35.7158 55.9495 40.5505 52.3206 45.5197 48.6975" stroke="white" stroke-opacity="0.6" stroke-linecap="round" stroke-linejoin="round"/>
<path d="M38.1448 48.3989C38.1448 48.3989 34.1179 40.5031 29.5466 35.2646" stroke="white" stroke-opacity="0.6" stroke-linecap="round" stroke-linejoin="round"/>
<path d="M38.1448 88.5803C40.9037 83.4931 44.3876 78.8341 48.4872 74.7495" stroke="white" stroke-opacity="0.6" stroke-linecap="round" stroke-linejoin="round"/>
<path d="M37.1906 93.9535C35.723 90.4974 33.9708 87.1692 31.9521 84.0033C29.1368 79.8417 28.7329 79.3208 28.7329 79.3208" stroke="white" stroke-opacity="0.6" stroke-linecap="round" stroke-linejoin="round"/>
<path d="M32.5725 119.941C33.7959 116.908 35.2497 113.973 36.9213 111.161C38.596 108.548 40.4831 106.078 42.5637 103.775" stroke="white" stroke-opacity="0.6" stroke-linecap="round" stroke-linejoin="round"/>
<path d="M37.8929 139.765C37.8929 139.765 37.3076 135.182 39.3387 131.29C41.3697 127.398 43.6407 122.282 44.583 120.275" stroke="white" stroke-opacity="0.6" stroke-linecap="round" stroke-linejoin="round"/>
<path d="M10.8167 68.7442C10.8167 68.7442 10.4012 66.3445 13.158 62.3995C15.9148 58.4545 17.7877 56.1426 17.7877 56.1426C17.7877 56.1426 20.4216 61.3694 17.8872 65.2734C15.9999 68.0337 13.8855 70.6318 11.5659 73.0404L10.8167 68.7442Z" fill="#E49B00"/>
<path d="M18.2911 82.8854C18.2911 82.8854 17.8755 80.4856 20.6323 76.5465C23.3891 72.6074 25.268 70.3071 25.268 70.3071C25.268 70.3071 27.9018 75.5398 25.3616 79.4379C23.4764 82.2001 21.3639 84.8 19.0461 87.2108L18.2911 82.8854Z" fill="#E49B00"/>
<path d="M11.7357 72.7945C11.7357 72.7945 11.0684 70.4533 6.85422 68.1121C2.64001 65.7708 0.00026623 64.489 0.00026623 64.489C0.00026623 64.489 -0.105074 70.3421 3.87501 72.7594C6.77136 74.4278 9.80208 75.8511 12.9355 77.0146L11.7357 72.7945Z" fill="#E49B00"/>
<path d="M20.6908 89.5051C20.6908 89.5051 19.7836 87.2458 15.347 85.3553C10.9103 83.4648 8.14771 82.4756 8.14771 82.4756C8.14771 82.4756 8.65693 88.3287 12.8711 90.2894C15.931 91.6379 19.0989 92.7265 22.3414 93.5437L20.6908 89.5051Z" fill="#E49B00"/>
<path d="M22.9267 108.972C22.9267 108.972 22.5112 106.573 18.5721 103.792C14.6329 101.012 12.1337 99.467 12.1337 99.467C12.1337 99.467 11.4079 105.279 15.1129 108.1C17.8181 110.066 20.6824 111.802 23.6759 113.292L22.9267 108.972Z" fill="#E49B00"/>
<path d="M23.7988 113.673C23.7988 113.673 23.0437 111.331 25.2386 107.059C27.4335 102.786 28.9085 100.228 28.9085 100.228C28.9085 100.228 32.2623 105.033 30.3015 109.253C28.8285 112.255 27.1055 115.127 25.1508 117.84L23.7988 113.673Z" fill="#E49B00"/>
<path d="M30.5356 133.034C30.5356 133.034 30.8165 130.611 34.5918 127.614C38.367 124.618 40.7668 122.932 40.7668 122.932C40.7668 122.932 41.8262 128.697 38.2909 131.711C35.703 133.829 32.9424 135.726 30.0381 137.383L30.5356 133.034Z" fill="#E49B00"/>
<path d="M29.529 127.058C29.529 127.058 29.1135 124.659 25.1744 121.884C21.2352 119.11 18.736 117.559 18.736 117.559C18.736 117.559 18.0102 123.365 21.7152 126.186C24.4188 128.154 27.2833 129.891 30.2782 131.378L29.529 127.058Z" fill="#E49B00"/>
<path d="M29.4764 140.105C29.4764 140.105 29.6813 137.682 26.5499 133.994C23.4185 130.307 21.4226 128.182 21.4226 128.182C21.4226 128.182 19.2452 133.62 22.1132 137.284C24.2329 139.871 26.5646 142.277 29.0843 144.477L29.4764 140.105Z" fill="#E49B00"/>
<path d="M10.407 68.1824C11.0128 70.6456 11.7514 73.0743 12.6195 75.4577C15.1363 82.0893 19.2217 85.9406 21.6215 91.9107C24.0212 97.8808 21.6215 106.543 23.992 114.31C26.3625 122.077 30.2606 125.987 30.2957 131.454C30.3308 136.921 28.1945 152.133 28.1945 152.133" stroke="white" stroke-opacity="0.6" stroke-linecap="round" stroke-linejoin="round"/>
<path d="M12.0459 74.3807L7.94287 72.2327" stroke="white" stroke-opacity="0.6" stroke-linecap="round" stroke-linejoin="round"/>
<path d="M11.3259 71.2143L12.3736 68.2527" stroke="white" stroke-opacity="0.6" stroke-linecap="round" stroke-linejoin="round"/>
<path d="M21.3697 91.6767C21.3697 91.6767 17.9457 89.9207 14.4397 88.1941" stroke="white" stroke-opacity="0.6" stroke-linecap="round" stroke-linejoin="round"/>
<path d="M19.0403 87.2106C19.0403 87.2106 20.7084 81.8199 23.0028 78.0388" stroke="white" stroke-opacity="0.6" stroke-linecap="round" stroke-linejoin="round"/>
<path d="M23.4008 112.408C21.1172 109.516 18.426 106.971 15.4114 104.852" stroke="white" stroke-opacity="0.6" stroke-linecap="round" stroke-linejoin="round"/>
<path d="M24.5715 115.674C25.1169 113.35 25.855 111.075 26.7781 108.873C28.0951 105.946 28.2882 105.572 28.2882 105.572" stroke="white" stroke-opacity="0.6" stroke-linecap="round" stroke-linejoin="round"/>
<path d="M30.1084 135.616C30.1084 135.616 32.8242 132.285 34.5158 131.039C35.5385 130.288 36.4978 129.454 37.3838 128.545" stroke="white" stroke-opacity="0.6" stroke-linecap="round" stroke-linejoin="round"/>
<path d="M30.2958 131.472C29.1959 129.697 27.9633 128.009 26.6084 126.42C25.2745 124.964 23.8218 123.621 22.2654 122.405" stroke="white" stroke-opacity="0.6" stroke-linecap="round" stroke-linejoin="round"/>
<path d="M29.1075 144.477C28.9654 142.624 28.3331 140.843 27.2754 139.315C25.5898 137.096 23.6056 134.141 22.7979 132.982" stroke="white" stroke-opacity="0.6" stroke-linecap="round" stroke-linejoin="round"/>
</svg>
