<svg width="167" height="136" viewBox="0 0 167 136" fill="none" xmlns="http://www.w3.org/2000/svg">
<ellipse cx="83.5" cy="120" rx="83.5" ry="16" fill="#302829"/>
<path d="M84 118C116.585 118 143 91.5848 143 59C143 26.4152 116.585 0 84 0C51.4152 0 25 26.4152 25 59C25 91.5848 51.4152 118 84 118Z" fill="#E49B00"/>
<path opacity="0.5" d="M84 118C116.585 118 143 91.5848 143 59C143 26.4152 116.585 0 84 0C51.4152 0 25 26.4152 25 59C25 91.5848 51.4152 118 84 118Z" fill="url(#paint0_linear_9_4)"/>
<path d="M71.0199 28.4295C71.0199 26.0695 68.4678 24.5876 64.0771 24.5876C60.345 24.5876 52.1399 26.6458 46.4869 33.9179C45.4441 35.2625 47.0357 36.0035 48.0785 35.1253C51.5636 32.1616 60.8664 28.3746 68.1385 29.1704C71.0474 29.4997 71.0199 28.4295 71.0199 28.4295Z" fill="#1A1112"/>
<path d="M64.7359 57.1056C67.8731 57.1056 70.4164 53.2601 70.4164 48.5163C70.4164 43.7726 67.8731 39.927 64.7359 39.927C61.5987 39.927 59.0554 43.7726 59.0554 48.5163C59.0554 53.2601 61.5987 57.1056 64.7359 57.1056Z" fill="#1A1112"/>
<path d="M96.9797 28.4293C96.9797 26.0693 99.5318 24.5874 103.923 24.5874C107.655 24.5874 115.86 26.6455 121.513 33.9176C122.556 35.2623 120.964 36.0032 119.921 35.1251C116.436 32.1614 107.133 28.3744 99.8611 29.1702C96.9523 29.4995 96.9797 28.4293 96.9797 28.4293Z" fill="#1A1112"/>
<path d="M103.264 57.1071C106.402 57.1071 108.945 53.2615 108.945 48.5178C108.945 43.774 106.402 39.9285 103.264 39.9285C100.127 39.9285 97.584 43.774 97.584 48.5178C97.584 53.2615 100.127 57.1071 103.264 57.1071Z" fill="#1A1112"/>
<path d="M123.846 68.9884C123.407 68.8238 122.913 68.7963 122.474 68.9336C110.015 72.501 97.0898 74.2847 84.0275 74.2847C70.9652 74.2847 58.0126 72.4736 45.5814 68.9336C45.1149 68.7963 44.6484 68.8238 44.2093 68.9884C42.8647 69.5373 40.7242 71.568 43.5507 79.334V79.3615C47.7219 89.2954 58.781 106.748 84 106.748C109.164 106.748 120.223 89.268 124.504 79.3615C127.303 71.568 125.19 69.5373 123.846 68.9884Z" fill="#1A1112"/>
<path d="M116.052 82.3253C119.51 81.5844 122.117 78.703 122.446 75.163L122.775 71.7053C110.207 75.2453 97.1721 77.0565 84 77.0565C70.8279 77.0565 57.793 75.2453 45.2246 71.7053L45.5539 75.163C45.8832 78.6756 48.4902 81.557 51.9479 82.3253C62.4307 84.603 73.1879 85.7281 84 85.7281C94.812 85.7281 105.569 84.5756 116.052 82.3253Z" fill="white"/>
<defs>
<linearGradient id="paint0_linear_9_4" x1="16.3944" y1="35.0893" x2="128.389" y2="35.0893" gradientUnits="userSpaceOnUse">
<stop stop-color="#E49B00"/>
<stop offset="1" stop-color="#FFBB47" stop-opacity="0"/>
</linearGradient>
</defs>
</svg>
